 <svg version="1.0" xmlns="http://www.w3.org/2000/svg"  width="256.000000pt" height="256.000000pt" viewBox="0 0 256.000000 256.000000"  preserveAspectRatio="xMidYMid meet">  <g transform="translate(0.000000,256.000000) scale(0.100000,-0.100000)" fill="#000000" stroke="none"> <path d="M345 1927 c-3 -6 -4 -197 -3 -422 l3 -410 584 -5 584 -5 118 -110 118 -110 1 -122 0 -123 231 0 c187 0 230 3 226 13 -3 7 -106 154 -228 326 l-224 313 -3 -72 c-2 -39 -7 -70 -12 -68 -5 2 -47 41 -94 87 l-86 83 0 84 0 84 -212 2 -211 3 -52 170 c-28 94 -59 184 -68 202 -21 39 -59 67 -112 82 -59 16 -554 15 -560 -2z m515 -180 c0 -2 18 -64 40 -137 22 -73 40 -135 40 -137 0 -2 -92 -3 -205 -3 l-205 0 0 140 0 140 165 0 c91 0 165 -1 165 -3z"/> <path d="M465 985 c-114 -40 -157 -184 -85 -283 57 -79 45 -77 575 -77 452 0 471 1 504 20 115 68 135 213 41 299 -21 19 -56 39 -77 45 -24 7 -197 11 -478 11 -353 -1 -448 -4 -480 -15z"/> </g> </svg> 